<?xml version="1.0" encoding="UTF-8"?>
<svg xmlns="http://www.w3.org/2000/svg" xmlns:xlink="http://www.w3.org/1999/xlink" width="340.93pt" height="179.45pt" viewBox="0 0 340.93 179.45" version="1.1">
<defs>
<clipPath id="clip1">
  <path d="M 0 166 L 327 166 L 327 179.449219 L 0 179.449219 Z M 0 166 "/>
</clipPath>
<clipPath id="clip2">
  <path d="M 0 163 L 330 163 L 330 179.449219 L 0 179.449219 Z M 0 163 "/>
</clipPath>
<clipPath id="clip3">
  <path d="M 328 0 L 340.929688 0 L 340.929688 13 L 328 13 Z M 328 0 "/>
</clipPath>
</defs>
<g id="surface1">
<path style=" stroke:none;fill-rule:nonzero;fill:rgb(1.960754%,39.988708%,68.943787%);fill-opacity:1;" d="M 238.613281 129.199219 C 238.070313 131.339844 239.71875 132.210938 241.671875 133.472656 C 243.613281 134.730469 245.867188 136.378906 247.988281 138.117188 C 251.574219 141.058594 254.015625 146.421875 256.351563 151.707031 C 257.554688 150.429688 256.707031 144.472656 257.378906 140.90625 C 257.523438 140.140625 258.347656 139.589844 258.425781 138.816406 C 258.699219 136.042969 258.769531 133.21875 258.425781 130.453125 C 258.296875 129.421875 257.296875 128.667969 257.03125 127.664063 C 256.820313 126.878906 256.871094 126.019531 257.03125 125.226563 C 257.226563 124.253906 257.988281 123.425781 258.074219 122.4375 C 258.339844 119.546875 258.511719 116.597656 258.074219 113.726563 C 257.914063 112.644531 256.253906 112.03125 256.335938 110.9375 C 256.402344 110.035156 258.355469 110.101563 258.425781 109.199219 C 258.613281 106.605469 257.71875 104.105469 257.398438 101.53125 C 256.675781 95.738281 256.253906 89.914063 255.652344 84.109375 C 255.4375 82.015625 254.601563 79.910156 254.957031 77.835938 C 256.046875 75.007813 257.042969 72.101563 258.09375 69.820313 C 258.605469 69.148438 259.28125 70.464844 259.800781 71.128906 C 261.5 73.296875 263.757813 75.980469 264.242188 78.691406 C 264.84375 82.011719 263.042969 84.953125 263.425781 88.308594 C 263.539063 89.285156 265.046875 89.109375 265.394531 90.03125 C 267.058594 94.433594 268.410156 98.988281 269.226563 103.621094 C 270.160156 108.902344 270.460938 114.289063 270.621094 119.652344 C 270.691406 121.984375 270.59375 124.382813 269.925781 126.621094 C 268.972656 129.8125 266.988281 132.359375 266.003906 135.445313 C 264.972656 138.671875 264.640625 139.636719 268.058594 139.636719 C 269.410156 139.632813 270.988281 139.6875 272.03125 140.210938 C 274.828125 141.605469 275.980469 144.832031 278.636719 146.480469 C 279.210938 146.839844 279.960938 147.332031 280.75 147.773438 C 284.511719 149.882813 284.925781 148.425781 285.714844 145.128906 C 286.746094 140.769531 287.007813 136.84375 287.675781 132.542969 C 288.019531 130.363281 287.945313 128.128906 288.042969 125.921875 C 288.179688 122.78125 288.414063 119.65625 288.253906 116.511719 C 288.179688 115.046875 288.1875 113.441406 287.226563 112.335938 C 286.503906 111.5 284.375 112.351563 284.089844 111.289063 C 283.699219 109.832031 285.804688 108.617188 285.832031 107.105469 C 285.257813 103.03125 284.726563 99.386719 284.660156 95.371094 C 284.582031 90.636719 283.566406 93.019531 281.996094 91.164063 C 281.050781 90.042969 280.753906 89.054688 280.605469 87.59375 C 280.167969 83.316406 280.789063 78.585938 280.132813 74.335938 C 279.84375 72.433594 278.953125 70.558594 277.695313 69.109375 C 277.238281 68.582031 276.402344 69.363281 276.09375 68.742188 C 275.570313 67.699219 277.175781 66.984375 276.5625 65.988281 C 275.140625 63.679688 272.164063 61.917969 269.90625 60.414063 C 269.230469 59.964844 268.042969 60.988281 267.46875 60.414063 C 266.894531 59.839844 266.90625 58.074219 267.46875 57.488281 C 271.484375 56.90625 273.554688 55.011719 275.515625 52.746094 C 278.175781 49.675781 279.480469 46.253906 280.8125 42.417969 C 281.429688 40.648438 280.640625 38.582031 280.847656 36.71875 C 281.230469 33.273438 283.035156 30.148438 282.433594 26.734375 C 281.558594 21.773438 279.113281 17.328125 276.300781 13.144531 C 274.738281 10.824219 272.3125 8.769531 269.785156 7.570313 C 267.675781 6.570313 265.910156 7.40625 263.671875 6.753906 C 261.074219 5.992188 258.996094 4.542969 256.351563 4 C 254.292969 3.578125 252.128906 4.4375 250.078125 3.964844 C 248.800781 3.671875 248.59375 2.230469 247.292969 2.03125 C 246.394531 1.894531 245.480469 3.191406 244.574219 3.269531 C 238.324219 3.796875 233.195313 2.585938 226.976563 3.40625 C 226.046875 3.53125 226.3125 4.566406 227.082031 5.097656 C 228.230469 5.894531 229.980469 5.5 231.261719 6.054688 C 233.566406 7.054688 235.339844 8.394531 237.046875 10.238281 C 238.464844 11.761719 239.039063 13.453125 240.320313 15.8125 C 240.847656 16.78125 242.367188 14.921875 243.460938 14.765625 C 244.839844 14.570313 245.796875 14.53125 246.664063 15.621094 C 247.445313 16.597656 245.828125 17.898438 244.90625 18.738281 C 243.042969 20.441406 241.769531 21.339844 240.121094 22.46875 C 238.992188 23.242188 236.996094 23.9375 236.15625 25.445313 C 234.296875 28.796875 236.503906 32.605469 237.21875 36.371094 C 237.480469 37.742188 237.78125 39.085938 238.09375 40.449219 C 239.105469 44.875 238.765625 48.5625 239.382813 53.0625 C 239.582031 54.515625 240.613281 55.78125 240.773438 57.242188 C 240.96875 58.976563 240.65625 60.257813 240.914063 61.980469 C 241.023438 62.71875 241.625 63.496094 241.820313 64.210938 C 242.6875 67.398438 243.453125 71.398438 243.5625 74.699219 C 243.921875 85.496094 243.277344 96.074219 243.824219 106.863281 C 243.875 107.84375 245.347656 108.234375 245.550781 109.199219 C 245.863281 110.691406 244.867188 112.40625 244.363281 113.847656 C 242.304688 119.753906 239.886719 124.171875 238.613281 129.199219 "/>
<g clip-path="url(#clip1)" clip-rule="nonzero">
<path style=" stroke:none;fill-rule:nonzero;fill:rgb(0%,0%,0%);fill-opacity:1;" d="M 26.023438 166.34375 L 30.3125 166.34375 L 34.046875 174.074219 C 34.175781 174.332031 34.324219 174.695313 34.496094 175.15625 C 34.664063 175.621094 34.851563 176.1875 35.058594 176.855469 C 34.949219 176.222656 34.871094 175.640625 34.816406 175.105469 C 34.765625 174.574219 34.738281 174.089844 34.738281 173.644531 L 34.738281 166.34375 L 37.84375 166.34375 L 37.84375 179.238281 L 33.570313 179.238281 L 29.6875 171.222656 C 29.507813 170.855469 29.339844 170.457031 29.1875 170.019531 C 29.039063 169.589844 28.898438 169.117188 28.773438 168.609375 C 28.894531 169.378906 28.984375 170.082031 29.039063 170.726563 C 29.097656 171.371094 29.125 171.941406 29.125 172.429688 L 29.125 179.234375 L 26.023438 179.234375 Z M 55.277344 166.34375 L 65.101563 166.34375 L 65.101563 168.917969 L 61.90625 168.917969 L 61.90625 179.234375 L 58.46875 179.234375 L 58.46875 168.917969 L 55.277344 168.917969 Z M 81.152344 166.34375 L 90.109375 166.34375 L 90.109375 168.753906 L 84.589844 168.753906 L 84.589844 171.359375 L 89.796875 171.359375 L 89.796875 173.808594 L 84.589844 173.808594 L 84.589844 176.75 L 90.316406 176.75 L 90.316406 179.238281 L 81.152344 179.238281 Z M 106.738281 166.34375 L 111.863281 166.34375 C 113.570313 166.34375 114.835938 166.621094 115.660156 167.171875 C 116.484375 167.726563 116.898438 168.570313 116.898438 169.699219 C 116.898438 170.535156 116.683594 171.222656 116.246094 171.761719 C 115.808594 172.300781 115.179688 172.65625 114.359375 172.839844 C 115.035156 173.085938 115.578125 173.792969 115.992188 174.953125 L 115.992188 174.960938 L 117.535156 179.234375 L 113.949219 179.234375 L 112.816406 175.707031 C 112.632813 175.140625 112.386719 174.746094 112.074219 174.527344 C 111.757813 174.308594 111.269531 174.199219 110.601563 174.199219 L 110.105469 174.199219 L 110.105469 179.234375 L 106.738281 179.234375 Z M 110.105469 168.609375 L 110.105469 171.914063 L 111.3125 171.914063 C 112.054688 171.914063 112.613281 171.78125 112.984375 171.511719 C 113.355469 171.242188 113.542969 170.835938 113.542969 170.296875 C 113.542969 169.71875 113.335938 169.292969 112.917969 169.019531 C 112.507813 168.746094 111.851563 168.609375 110.957031 168.609375 Z M 131.824219 166.34375 L 141.648438 166.34375 L 141.648438 168.917969 L 138.453125 168.917969 L 138.453125 179.234375 L 135.015625 179.234375 L 135.015625 168.917969 L 131.824219 168.917969 Z M 160.015625 166.34375 L 164.164063 166.34375 L 169.042969 179.238281 L 165.371094 179.238281 L 164.453125 176.503906 L 159.488281 176.503906 L 158.527344 179.238281 L 155.125 179.238281 Z M 162.023438 169.21875 L 160.355469 174.054688 L 163.636719 174.054688 Z M 183.691406 166.34375 L 187.128906 166.34375 L 187.128906 179.238281 L 183.691406 179.238281 Z M 203.851563 166.34375 L 208.144531 166.34375 L 211.878906 174.074219 C 212.007813 174.332031 212.15625 174.695313 212.324219 175.15625 C 212.496094 175.621094 212.683594 176.1875 212.890625 176.855469 C 212.777344 176.222656 212.699219 175.640625 212.648438 175.105469 C 212.597656 174.574219 212.570313 174.089844 212.570313 173.644531 L 212.570313 166.34375 L 215.675781 166.34375 L 215.675781 179.238281 L 211.398438 179.238281 L 207.519531 171.222656 C 207.339844 170.855469 207.167969 170.457031 207.019531 170.019531 C 206.867188 169.589844 206.730469 169.117188 206.601563 168.609375 C 206.722656 169.378906 206.8125 170.085938 206.867188 170.726563 C 206.925781 171.371094 206.953125 171.945313 206.953125 172.429688 L 206.953125 179.234375 L 203.851563 179.234375 Z M 231.746094 166.34375 L 236.742188 166.34375 L 238.984375 174.089844 C 239.074219 174.402344 239.140625 174.746094 239.195313 175.128906 C 239.253906 175.511719 239.292969 175.925781 239.320313 176.367188 C 239.359375 175.890625 239.414063 175.453125 239.476563 175.046875 C 239.542969 174.644531 239.609375 174.300781 239.691406 174.019531 L 241.9375 166.34375 L 246.851563 166.34375 L 246.851563 179.234375 L 243.777344 179.234375 L 243.777344 170.578125 C 243.777344 170.167969 243.789063 169.742188 243.8125 169.300781 C 243.839844 168.855469 243.867188 168.386719 243.914063 167.886719 C 243.839844 168.273438 243.753906 168.644531 243.664063 168.996094 C 243.578125 169.347656 243.484375 169.6875 243.386719 170 L 240.625 179.234375 L 237.6875 179.234375 L 234.988281 170.152344 C 234.894531 169.839844 234.804688 169.488281 234.71875 169.105469 C 234.632813 168.722656 234.550781 168.316406 234.476563 167.886719 C 234.519531 168.496094 234.550781 169.046875 234.578125 169.535156 C 234.605469 170.019531 234.613281 170.386719 234.613281 170.636719 L 234.613281 179.234375 L 231.746094 179.234375 Z M 262.855469 166.34375 L 271.816406 166.34375 L 271.816406 168.753906 L 266.296875 168.753906 L 266.296875 171.359375 L 271.507813 171.359375 L 271.507813 173.808594 L 266.296875 173.808594 L 266.296875 176.75 L 272.023438 176.75 L 272.023438 179.238281 L 262.855469 179.238281 Z M 287.839844 166.34375 L 292.132813 166.34375 L 295.867188 174.074219 C 295.992188 174.332031 296.144531 174.695313 296.3125 175.15625 C 296.484375 175.621094 296.671875 176.1875 296.878906 176.855469 C 296.765625 176.222656 296.6875 175.640625 296.636719 175.105469 C 296.585938 174.574219 296.558594 174.089844 296.558594 173.644531 L 296.558594 166.34375 L 299.660156 166.34375 L 299.660156 179.238281 L 295.386719 179.238281 L 291.507813 171.222656 C 291.324219 170.855469 291.15625 170.457031 291.007813 170.019531 C 290.855469 169.589844 290.71875 169.117188 290.589844 168.609375 C 290.710938 169.378906 290.800781 170.082031 290.855469 170.726563 C 290.914063 171.371094 290.941406 171.941406 290.941406 172.429688 L 290.941406 179.234375 L 287.839844 179.234375 Z M 317.023438 166.34375 L 326.847656 166.34375 L 326.847656 168.917969 L 323.65625 168.917969 L 323.65625 179.234375 L 320.21875 179.234375 L 320.21875 168.917969 L 317.023438 168.917969 Z M 0.4375 166.34375 L 9.394531 166.34375 L 9.394531 168.753906 L 3.875 168.753906 L 3.875 171.359375 L 9.082031 171.359375 L 9.082031 173.808594 L 3.875 173.808594 L 3.875 176.75 L 9.601563 176.75 L 9.601563 179.238281 L 0.4375 179.238281 "/>
</g>
<g clip-path="url(#clip2)" clip-rule="nonzero">
<path style="fill:none;stroke-width:4.32;stroke-linecap:butt;stroke-linejoin:miter;stroke:rgb(0%,0%,0%);stroke-opacity:1;stroke-miterlimit:4;" d="M 260.234375 131.0625 L 303.125 131.0625 L 340.46875 53.757813 C 341.757813 51.179688 343.242188 47.546875 344.960938 42.9375 C 346.640625 38.289063 348.515625 32.625 350.585938 25.945313 C 349.492188 32.273438 348.710938 38.09375 348.164063 43.445313 C 347.65625 48.757813 347.382813 53.601563 347.382813 58.054688 L 347.382813 131.0625 L 378.4375 131.0625 L 378.4375 2.117188 L 335.703125 2.117188 L 296.875 82.273438 C 295.078125 85.945313 293.398438 89.929688 291.875 94.304688 C 290.390625 98.601563 288.984375 103.328125 287.734375 108.40625 C 288.945313 100.710938 289.84375 93.679688 290.390625 87.234375 C 290.976563 80.789063 291.25 75.085938 291.25 70.203125 L 291.25 2.15625 L 260.234375 2.15625 Z M 552.773438 131.0625 L 651.015625 131.0625 L 651.015625 105.320313 L 619.0625 105.320313 L 619.0625 2.15625 L 584.6875 2.15625 L 584.6875 105.320313 L 552.773438 105.320313 Z M 811.523438 131.0625 L 901.09375 131.0625 L 901.09375 106.960938 L 845.898438 106.960938 L 845.898438 80.90625 L 897.96875 80.90625 L 897.96875 56.414063 L 845.898438 56.414063 L 845.898438 27 L 903.164063 27 L 903.164063 2.117188 L 811.523438 2.117188 Z M 1067.382813 131.0625 L 1118.632813 131.0625 C 1135.703125 131.0625 1148.359375 128.289063 1156.601563 122.78125 C 1164.84375 117.234375 1168.984375 108.796875 1168.984375 97.507813 C 1168.984375 89.148438 1166.835938 82.273438 1162.460938 76.882813 C 1158.085938 71.492188 1151.796875 67.9375 1143.59375 66.101563 C 1150.351563 63.640625 1155.78125 56.570313 1159.921875 44.96875 L 1159.921875 44.890625 L 1175.351563 2.15625 L 1139.492188 2.15625 L 1128.164063 37.429688 C 1126.328125 43.09375 1123.867188 47.039063 1120.742188 49.226563 C 1117.578125 51.414063 1112.695313 52.507813 1106.015625 52.507813 L 1101.054688 52.507813 L 1101.054688 2.15625 L 1067.382813 2.15625 Z M 1101.054688 108.40625 L 1101.054688 75.359375 L 1113.125 75.359375 C 1120.546875 75.359375 1126.132813 76.6875 1129.84375 79.382813 C 1133.554688 82.078125 1135.429688 86.140625 1135.429688 91.53125 C 1135.429688 97.3125 1133.359375 101.570313 1129.179688 104.304688 C 1125.078125 107.039063 1118.515625 108.40625 1109.570313 108.40625 Z M 1318.242188 131.0625 L 1416.484375 131.0625 L 1416.484375 105.320313 L 1384.53125 105.320313 L 1384.53125 2.15625 L 1350.15625 2.15625 L 1350.15625 105.320313 L 1318.242188 105.320313 Z M 1600.15625 131.0625 L 1641.640625 131.0625 L 1690.429688 2.117188 L 1653.710938 2.117188 L 1644.53125 29.460938 L 1594.882813 29.460938 L 1585.273438 2.117188 L 1551.25 2.117188 Z M 1620.234375 102.3125 L 1603.554688 53.953125 L 1636.367188 53.953125 Z M 1836.914063 131.0625 L 1871.289063 131.0625 L 1871.289063 2.117188 L 1836.914063 2.117188 Z M 2038.515625 131.0625 L 2081.445313 131.0625 L 2118.789063 53.757813 C 2120.078125 51.179688 2121.5625 47.546875 2123.242188 42.9375 C 2124.960938 38.289063 2126.835938 32.625 2128.90625 25.945313 C 2127.773438 32.273438 2126.992188 38.09375 2126.484375 43.445313 C 2125.976563 48.757813 2125.703125 53.601563 2125.703125 58.054688 L 2125.703125 131.0625 L 2156.757813 131.0625 L 2156.757813 2.117188 L 2113.984375 2.117188 L 2075.195313 82.273438 C 2073.398438 85.945313 2071.679688 89.929688 2070.195313 94.304688 C 2068.671875 98.601563 2067.304688 103.328125 2066.015625 108.40625 C 2067.226563 100.710938 2068.125 93.640625 2068.671875 87.234375 C 2069.257813 80.789063 2069.53125 75.046875 2069.53125 70.203125 L 2069.53125 2.15625 L 2038.515625 2.15625 Z M 2317.460938 131.0625 L 2367.421875 131.0625 L 2389.84375 53.601563 C 2390.742188 50.476563 2391.40625 47.039063 2391.953125 43.210938 C 2392.539063 39.382813 2392.929688 35.242188 2393.203125 30.828125 C 2393.59375 35.59375 2394.140625 39.96875 2394.765625 44.03125 C 2395.429688 48.054688 2396.09375 51.492188 2396.914063 54.304688 L 2419.375 131.0625 L 2468.515625 131.0625 L 2468.515625 2.15625 L 2437.773438 2.15625 L 2437.773438 88.71875 C 2437.773438 92.820313 2437.890625 97.078125 2438.125 101.492188 C 2438.398438 105.945313 2438.671875 110.632813 2439.140625 115.632813 C 2438.398438 111.765625 2437.539063 108.054688 2436.640625 104.539063 C 2435.78125 101.023438 2434.84375 97.625 2433.867188 94.5 L 2406.25 2.15625 L 2376.875 2.15625 L 2349.882813 92.976563 C 2348.945313 96.101563 2348.046875 99.617188 2347.1875 103.445313 C 2346.328125 107.273438 2345.507813 111.335938 2344.765625 115.632813 C 2345.195313 109.539063 2345.507813 104.03125 2345.78125 99.148438 C 2346.054688 94.304688 2346.132813 90.632813 2346.132813 88.132813 L 2346.132813 2.15625 L 2317.460938 2.15625 Z M 2628.554688 131.0625 L 2718.164063 131.0625 L 2718.164063 106.960938 L 2662.96875 106.960938 L 2662.96875 80.90625 L 2715.078125 80.90625 L 2715.078125 56.414063 L 2662.96875 56.414063 L 2662.96875 27 L 2720.234375 27 L 2720.234375 2.117188 L 2628.554688 2.117188 Z M 2878.398438 131.0625 L 2921.328125 131.0625 L 2958.671875 53.757813 C 2959.921875 51.179688 2961.445313 47.546875 2963.125 42.9375 C 2964.84375 38.289063 2966.71875 32.625 2968.789063 25.945313 C 2967.65625 32.273438 2966.875 38.09375 2966.367188 43.445313 C 2965.859375 48.757813 2965.585938 53.601563 2965.585938 58.054688 L 2965.585938 131.0625 L 2996.601563 131.0625 L 2996.601563 2.117188 L 2953.867188 2.117188 L 2915.078125 82.273438 C 2913.242188 85.945313 2911.5625 89.929688 2910.078125 94.304688 C 2908.554688 98.601563 2907.1875 103.328125 2905.898438 108.40625 C 2907.109375 100.710938 2908.007813 93.679688 2908.554688 87.234375 C 2909.140625 80.789063 2909.414063 75.085938 2909.414063 70.203125 L 2909.414063 2.15625 L 2878.398438 2.15625 Z M 3170.234375 131.0625 L 3268.476563 131.0625 L 3268.476563 105.320313 L 3236.5625 105.320313 L 3236.5625 2.15625 L 3202.1875 2.15625 L 3202.1875 105.320313 L 3170.234375 105.320313 Z M 4.375 131.0625 L 93.945313 131.0625 L 93.945313 106.960938 L 38.75 106.960938 L 38.75 80.90625 L 90.820313 80.90625 L 90.820313 56.414063 L 38.75 56.414063 L 38.75 27 L 96.015625 27 L 96.015625 2.117188 L 4.375 2.117188 Z M 4.375 131.0625 " transform="matrix(0.1,0,0,-0.1,0,179.45)"/>
</g>
<path style=" stroke:none;fill-rule:nonzero;fill:rgb(1.960754%,39.988708%,68.943787%);fill-opacity:1;" d="M 86.746094 126.957031 C 86.746094 126.957031 87.445313 130.035156 89.171875 128.875 C 90.894531 127.71875 91.597656 125.980469 93.320313 125.980469 C 95.046875 125.980469 102.238281 124.628906 103.964844 125.980469 C 105.6875 127.332031 105.859375 126.171875 106.722656 126.171875 C 107.585938 126.171875 110.121094 126.621094 110.121094 126.621094 C 112.324219 126.390625 111.875 122.886719 110.28125 121.859375 C 107.980469 120.058594 104.882813 118.898438 102.582031 117.09375 C 102.351563 115.355469 102.121094 113.621094 101.894531 111.882813 C 102.523438 110.980469 103.15625 110.078125 103.789063 109.175781 L 103.789063 100.488281 C 103.445313 99.714844 103.101563 98.941406 102.757813 98.171875 C 102.640625 95.980469 102.523438 93.792969 102.410156 91.605469 C 102.121094 91.21875 101.835938 90.832031 101.546875 90.445313 L 101.546875 87.9375 C 102.121094 87.097656 103.289063 86.261719 103.863281 85.425781 C 104.035156 83.816406 103.265625 82.679688 103.4375 81.070313 C 103.035156 79.011719 102.984375 76.480469 102.582031 74.417969 L 102.582031 66.886719 C 104.253906 66.390625 104.65625 65.648438 104.777344 64.902344 C 104.929688 63.9375 104.457031 62.804688 103.964844 60.515625 C 103.734375 48.476563 103.621094 35.964844 103.390625 23.929688 C 104.308594 22.488281 105.410156 21.746094 105.433594 20.679688 C 105.449219 19.851563 104.558594 19.15625 103.445313 18.222656 L 103.445313 15.710938 C 103.445313 15.710938 105.34375 11.851563 106.894531 11.851563 C 108.449219 11.851563 109.484375 10.691406 109.484375 9.53125 C 110.902344 6.71875 107.933594 6.441406 107.933594 6.441406 C 104.644531 6.375 100.921875 6.542969 97.71875 6.476563 C 94.890625 6.414063 92.566406 6.117188 89.816406 6.054688 C 88.609375 6.121094 87.398438 6.183594 86.191406 6.25 C 83.226563 7.148438 83.847656 8.761719 84.984375 9.664063 C 86.363281 10.53125 87.542969 11.527344 89.125 11.558594 C 91.058594 11.601563 92.59375 12.234375 93.265625 14.167969 C 93.4375 21.890625 93.609375 29.617188 93.785156 37.339844 C 93.84375 43.035156 94.015625 48.734375 94.074219 54.429688 C 94.132813 60.128906 94.074219 65.824219 94.128906 71.519531 C 94.242188 78.21875 94.359375 84.910156 94.472656 91.605469 C 94.472656 91.605469 94.128906 94.117188 93.609375 94.695313 C 93.09375 95.273438 93.265625 100.296875 93.265625 100.296875 C 95.175781 101.960938 94.769531 101.726563 93.4375 103.964844 C 93.324219 108.921875 93.207031 113.878906 93.09375 118.835938 C 92.632813 119.734375 92.175781 120.636719 91.714844 121.539063 C 91.714844 121.539063 86.746094 124.449219 86.746094 126.957031 "/>
<path style=" stroke:none;fill-rule:nonzero;fill:rgb(1.960754%,39.988708%,68.943787%);fill-opacity:1;" d="M 3.191406 150.964844 C 0.632813 150.4375 0.15625 149.199219 1.0625 148.46875 C 1.609375 148.03125 3.066406 148.046875 3.722656 147.742188 C 4.679688 147.289063 5.660156 146.699219 6.238281 145.984375 C 7.226563 144.761719 6.625 141.933594 7.804688 139.628906 C 8.9375 129.910156 9.273438 117.03125 8.144531 112.699219 C 7.464844 106.023438 8.160156 83.847656 8.160156 81.035156 C 8.914063 79.683594 9.195313 79.574219 9.199219 77.210938 C 9.203125 76.285156 9.824219 74.84375 9.160156 73.699219 C 8.199219 72.605469 8.492188 68.3125 8.417969 65.894531 C 8.304688 62.292969 8.570313 62.320313 9.570313 59.058594 C 9.949219 57.832031 10.074219 56.371094 9.570313 55.195313 C 8.753906 53.292969 7.574219 55.488281 7.652344 51.671875 C 7.847656 42.402344 8.191406 33.078125 7.945313 23.8125 C 8 22.984375 9.375 22.835938 9.644531 22.054688 C 9.984375 21.0625 10.101563 19.835938 9.644531 18.894531 C 9.386719 18.359375 7.941406 19.054688 7.519531 18.648438 C 4.929688 16.175781 1.675781 14.621094 0.175781 11.320313 C -0.40625 10.039063 0.53125 7.207031 1.765625 6.597656 C 3.808594 5.582031 7.605469 6.632813 9.839844 6.246094 C 11.042969 6.039063 11.800781 5.324219 13.019531 5.269531 C 22.515625 4.851563 32.28125 3.902344 41.742188 4.839844 C 43.257813 4.988281 43.757813 7.660156 45.136719 8.324219 C 47.027344 9.234375 49.792969 9.039063 51.246094 10.589844 C 53.570313 13.074219 55.238281 15.125 55.53125 18.570313 C 55.894531 22.800781 56.621094 27.589844 56.585938 30.839844 C 56.554688 33.558594 55.738281 36.015625 54.527344 38.355469 C 52.863281 41.5625 50.886719 44.554688 48.746094 47.722656 C 47.511719 49.546875 45.3125 51.242188 44.796875 53.324219 C 44.261719 55.476563 49.824219 53.894531 50.960938 55.78125 C 52.054688 57.59375 50.027344 59.714844 50.640625 61.757813 C 51.183594 63.574219 54.339844 63.753906 54.710938 65.621094 C 55.675781 70.4375 53.546875 75.53125 54.371094 80.375 C 54.636719 81.925781 57.097656 81.984375 57.335938 83.539063 C 57.628906 86.898438 57.523438 90.457031 57.550781 94.027344 C 57.578125 97.832031 57.726563 101.648438 57.675781 105.261719 C 57.582031 106.625 55.796875 107.421875 55.640625 108.777344 C 55.214844 112.382813 56.453125 116.453125 55.65625 119.988281 C 54.820313 123.714844 51.824219 126.34375 50.65625 129.972656 C 49.644531 133.113281 49.933594 137.703125 48.300781 139.671875 C 45.601563 140.519531 42.238281 142.417969 40.113281 144.003906 C 37.003906 146.316406 35.019531 148.964844 34.0625 149.050781 C 32.847656 150.128906 30.28125 149.40625 28.773438 149.96875 C 27.386719 150.484375 27.257813 151.648438 25.792969 151.460938 C 24.636719 151.3125 24.996094 150.351563 24.09375 149.589844 C 23.570313 149.144531 22.5625 149.117188 22.058594 149.589844 C 19.011719 152.042969 21.285156 151.398438 17.824219 151.078125 C 14.3125 150.757813 7.472656 151.839844 3.195313 150.964844 "/>
<path style=" stroke:none;fill-rule:nonzero;fill:rgb(100%,100%,100%);fill-opacity:1;" d="M 22.878906 136.863281 C 23.671875 135.339844 24.464844 133.816406 25.253906 132.292969 C 25.027344 127.257813 24.800781 122.222656 24.574219 117.1875 C 25.253906 116.25 25.933594 115.3125 26.613281 114.375 L 26.613281 99.160156 C 26.613281 96.851563 26.289063 94.546875 26.289063 92.242188 C 23.910156 90.269531 25.046875 90.300781 26.96875 88.027344 C 26.96875 85.800781 27.507813 84.007813 27.507813 81.78125 C 27.277344 79.90625 27.050781 78.035156 26.828125 76.160156 C 27.167969 75.222656 27.507813 74.285156 27.84375 73.347656 C 27.84375 70.53125 28.167969 68.253906 28.167969 65.433594 C 28.167969 62.785156 28.242188 61.902344 28.726563 62.066406 C 29.210938 62.230469 30.101563 63.449219 31.730469 65.015625 C 32.96875 66.207031 34.207031 67.394531 35.441406 68.585938 C 37.726563 70.78125 39.953125 70.980469 39.027344 74.578125 C 38.160156 77.945313 40.648438 78.878906 39.875 82.21875 C 39.285156 84.773438 38.507813 86.332031 38.679688 87.914063 C 38.78125 88.863281 39.226563 89.820313 40.257813 91.003906 C 41.210938 92.097656 41.523438 92.03125 40.957031 93.375 C 40.074219 95.460938 39.324219 96.675781 39.234375 97.929688 C 39.121094 99.539063 39.996094 100.277344 40.765625 103.121094 C 41.398438 105.445313 41.335938 106.988281 40.753906 109.320313 C 40.066406 112.085938 39.378906 114.851563 38.6875 117.617188 C 38.609375 119.710938 38.417969 121.804688 38.269531 123.898438 C 38.042969 127.089844 37.621094 127.167969 35.402344 129.449219 C 33.386719 131.519531 30.792969 133.292969 28.847656 135.144531 C 26.699219 135.964844 25.027344 136.042969 22.878906 136.863281 "/>
<path style=" stroke:none;fill-rule:nonzero;fill:rgb(100%,100%,100%);fill-opacity:1;" d="M 28.070313 48.089844 C 29.792969 48.144531 30.5625 48.3125 31.097656 48.09375 C 31.632813 47.871094 31.929688 47.261719 32.707031 45.75 C 33.714844 43.796875 35.203125 41.355469 36.441406 41.171875 C 38.519531 40.863281 39.605469 40.554688 39.605469 40.554688 C 39.605469 40.554688 40.695313 40.347656 40.324219 37.664063 C 39.949219 34.980469 39.183594 32.398438 39.859375 31.675781 C 40.535156 30.953125 40.679688 28.886719 39.957031 28.0625 C 39.238281 27.234375 38.554688 26.410156 39.71875 25.273438 C 40.878906 24.136719 41.679688 22.238281 38.902344 22.546875 C 36.125 22.855469 36.160156 21.65625 35.839844 20.828125 C 35.515625 20.003906 32.488281 20.191406 30.902344 20.101563 C 29.320313 20.410156 27.988281 20.304688 28.035156 21.957031 C 28.082031 23.609375 27.816406 31.570313 27.835938 32.398438 C 27.859375 33.222656 28.070313 48.089844 28.070313 48.089844 "/>
<path style=" stroke:none;fill-rule:nonzero;fill:rgb(1.960754%,39.988708%,68.943787%);fill-opacity:1;" d="M 115.945313 120.574219 C 115.824219 121.273438 114.210938 121.28125 114.335938 121.984375 C 114.507813 122.964844 114.574219 124.5 115.5625 124.628906 C 118.433594 125 122.367188 123.855469 125.214844 124.382813 C 126.335938 124.59375 126.398438 126.507813 127.429688 127.003906 C 128.273438 126.988281 129.578125 127.015625 130.652344 127.003906 C 131.476563 126.570313 131.257813 125.054688 132.0625 124.585938 C 133.054688 124.007813 134.40625 123.785156 135.484375 124.179688 C 136.066406 124.394531 135.273438 125.921875 135.886719 125.996094 C 140.910156 125.804688 145.394531 126.355469 150.144531 125.996094 C 151.09375 125.839844 150.125 124.480469 150.902344 123.917969 C 151.785156 123.277344 153.976563 124.394531 154.125 123.3125 C 154.898438 117.71875 153.691406 111.472656 154.21875 105.851563 C 154.386719 104.054688 156.113281 102.984375 156.5 101.21875 C 156.628906 100.632813 157.332031 100.621094 157.390625 100.042969 C 157.585938 98.023438 157.550781 95.578125 157.039063 93.59375 C 156.363281 92.898438 154.292969 92.644531 153.613281 92.960938 C 152.851563 93.523438 153.546875 95.523438 153.03125 96.320313 C 152.777344 96.71875 151.871094 95.925781 151.621094 96.320313 C 151.375 96.710938 151.695313 97.351563 151.808594 97.855469 C 151.875 98.160156 151.867188 98.414063 151.621094 98.535156 C 150.300781 99.199219 148.355469 97.632813 147.191406 98.535156 C 146.046875 99.425781 147.328125 101.148438 146.363281 102.226563 C 144.792969 103.976563 141.433594 105 139.871094 106.753906 C 138.011719 108.839844 138.179688 110.964844 136.042969 112.765625 C 134.371094 114.171875 131.53125 114.320313 129.507813 115.144531 C 127.160156 116.097656 126.039063 117.855469 123.601563 118.542969 C 122.863281 118.75 121.964844 117.460938 122.191406 116.730469 C 124.019531 110.808594 126.390625 104.855469 128.363281 98.976563 C 129.628906 95.210938 130.222656 92.832031 131.589844 89.097656 C 133.003906 85.230469 134.851563 80.457031 137.160156 77.050781 C 137.617188 76.378906 139.136719 76.816406 139.378906 76.042969 C 139.980469 74.121094 138.851563 71.941406 139.378906 70 C 139.765625 68.558594 141.28125 67.179688 142.535156 66.371094 C 143.382813 65.828125 144.734375 66.585938 145.109375 65.652344 C 145.980469 63.46875 145.164063 61.15625 145.714844 58.871094 C 146.085938 57.332031 147.144531 56.390625 147.816406 54.953125 C 148.710938 53.050781 148.644531 51.398438 149.628906 49.542969 C 150.429688 48.03125 152.117188 45.914063 152.605469 44.273438 C 153.273438 42.019531 152.726563 40.914063 152.941406 38.574219 C 153 37.945313 153.925781 37.597656 153.949219 36.964844 C 154.261719 29.382813 154.664063 21.777344 154.21875 14.203125 C 154.183594 13.585938 152.796875 13.613281 152.808594 12.992188 C 152.855469 10.679688 153.136719 8.636719 153.011719 6.550781 C 152.984375 6.140625 153.125 5.808594 152.71875 5.789063 C 146.410156 5.523438 140.1875 5.667969 133.875 5.742188 C 128.703125 5.804688 123.523438 5.386719 118.363281 5.742188 C 117.585938 5.796875 116.882813 5.929688 116.351563 6.5 C 115.835938 7.050781 115.582031 8.21875 115.613281 8.964844 C 115.746094 12.332031 115.546875 15.996094 115.613281 20.042969 C 115.625 20.792969 117.101563 20.34375 117.355469 21.050781 C 118.066406 23.015625 118.121094 25.210938 117.960938 27.296875 C 117.910156 27.964844 117.097656 28.867188 117.113281 29.535156 C 117.4375 31.867188 117.738281 33.515625 118.164063 35.757813 C 118.40625 36.621094 119.152344 37.300781 119.371094 38.171875 C 119.632813 39.21875 118.679688 41.324219 119.753906 41.394531 C 120.109375 41.417969 121.351563 41.625 121.988281 41.394531 C 122.808594 41.097656 121.6875 39.597656 121.988281 38.777344 C 122.203125 38.195313 123.300781 38.179688 123.398438 37.566406 C 123.933594 34.253906 123.007813 30.363281 123.53125 27.046875 C 123.695313 26.035156 124.273438 24.96875 125.144531 24.429688 C 125.886719 23.96875 127.226563 25.117188 127.761719 24.429688 C 128.507813 23.472656 127.773438 22.371094 128.234375 21.253906 C 128.890625 19.648438 129.960938 18.175781 131.257813 17.023438 C 132.445313 15.964844 133.632813 14.699219 135.214844 14.535156 C 138.753906 14.167969 142.984375 14.5 147.773438 14.292969 C 148.222656 14.273438 148.34375 14.964844 148.378906 15.410156 C 148.546875 17.621094 148.949219 20.621094 148.378906 22.058594 C 147.546875 24.144531 145.671875 26.472656 143.765625 28.636719 C 142.464844 30.117188 141.144531 31.429688 140.140625 32.914063 C 138.933594 34.695313 140.734375 37.121094 140.117188 39.179688 C 139.488281 41.285156 137.761719 43.523438 136.425781 45.269531 C 135.328125 46.703125 133.714844 47.433594 132.6875 48.917969 C 131.402344 50.765625 130.65625 52.589844 129.84375 54.691406 C 129.171875 56.4375 128.738281 58.28125 128.4375 60.128906 C 128.195313 61.589844 128.894531 63.238281 128.234375 64.558594 C 127.75 65.527344 126.65625 65.347656 125.953125 66.171875 C 124.976563 67.3125 124.402344 68.773438 123.9375 70.199219 C 123.386719 71.890625 123.34375 72.890625 122.484375 74.445313 C 121.515625 76.191406 119.578125 77.878906 118.703125 79.667969 C 117.742188 81.617188 117.632813 83.992188 117.15625 86.113281 C 116.691406 88.164063 116.304688 90.097656 115.882813 92.15625 C 115.363281 94.675781 114.820313 97.238281 114.875 99.808594 C 114.890625 100.59375 115.71875 101.132813 116.082031 101.824219 C 116.390625 102.410156 117.097656 103.011719 116.890625 103.636719 C 116.605469 104.492188 115.003906 104.554688 114.875 105.449219 C 114.742188 106.371094 114.976563 107.226563 115.65625 107.867188 C 116.246094 108.421875 117.449219 108.179688 117.871094 108.875 C 118.328125 109.621094 118.246094 110.703125 117.871094 111.492188 C 117.5625 112.148438 116.46875 111.988281 116.328125 112.703125 C 115.75 115.597656 116.460938 117.664063 115.945313 120.574219 "/>
<path style=" stroke:none;fill-rule:nonzero;fill:rgb(1.960754%,39.988708%,68.943787%);fill-opacity:1;" d="M 290.59375 149.121094 C 290.214844 147.917969 291.15625 147.683594 291.785156 147.058594 C 292.703125 146.144531 293.59375 145.25 293.953125 143.445313 C 294.09375 142.761719 294.792969 141.65625 294.953125 140.558594 C 295.195313 138.960938 294.828125 137.292969 294.394531 136.257813 C 293.820313 134.902344 292.882813 134.199219 293.222656 132.90625 C 293.34375 132.082031 295.210938 131.976563 296.683594 131.324219 C 297.453125 130.980469 298.117188 130.3125 298.363281 129.683594 C 298.6875 128.851563 297.613281 128.992188 297.070313 127.9375 C 296.488281 126.816406 296.398438 125.136719 295.949219 124.300781 C 295.171875 122.847656 293.738281 120.890625 293.6875 119.238281 C 293.546875 114.824219 294.824219 110.371094 294.988281 106.128906 C 295.128906 102.566406 295.96875 101.71875 295.695313 98.070313 C 295.5625 96.253906 294.589844 94.933594 293.578125 93.078125 C 292.746094 91.542969 291.652344 90.019531 291.230469 88.570313 C 290.484375 85.992188 291.234375 82.933594 290.78125 80.289063 C 290.695313 79.769531 289.394531 79.136719 289.347656 78.609375 C 289.011719 74.976563 289.421875 71.257813 289.1875 67.660156 C 289.066406 66.984375 288.519531 66.855469 288.453125 66.175781 C 288.265625 64.160156 288.449219 62.195313 288.445313 60.453125 C 288.441406 58.917969 288.226563 57.605469 288.226563 55.820313 C 288.226563 55.152344 287.675781 54.699219 287.652344 54.03125 C 287.519531 50.101563 287.683594 45.765625 287.632813 41.828125 C 287.574219 37.636719 287.320313 33.847656 287.652344 29.675781 C 287.710938 28.972656 289.132813 28.988281 289.105469 28.285156 C 288.972656 25.089844 288.695313 23.816406 288.773438 20.601563 C 288.78125 20.230469 289.539063 19.367188 289.570313 18.996094 C 289.792969 16.320313 290.125 13.644531 289.441406 11.355469 C 288.949219 9.695313 287.707031 9.179688 286.277344 8.109375 C 285.019531 7.164063 283.613281 5.628906 282.445313 4.765625 C 280.953125 3.664063 279.960938 2.777344 278.828125 1.128906 C 278.152344 0.132813 279.273438 0.046875 280.523438 0.0117188 C 282.132813 -0.0351563 283.886719 0.101563 285.417969 0.34375 C 285.9375 0.425781 286.910156 1.316406 287.402344 1.507813 C 288.578125 1.964844 289.351563 1.371094 290.558594 1.746094 C 291.484375 2.035156 295.332031 4.042969 296.367188 4.640625 C 297.78125 5.453125 298.242188 6.640625 299.71875 7.332031 C 299.988281 7.457031 304.550781 8.765625 305.082031 8.898438 C 306.320313 9.207031 307.085938 8.300781 308.320313 8.609375 C 309.757813 8.96875 312.3125 9.691406 313.925781 10.175781 C 314.832031 10.445313 315.40625 11.519531 316.335938 11.703125 C 320.847656 12.605469 320.039063 11.101563 323.613281 14.671875 C 324.664063 15.722656 326.402344 16.570313 327.1875 17.835938 C 328.292969 19.617188 328.410156 21.808594 329.113281 23.753906 C 329.660156 25.265625 330.886719 26.507813 331.175781 28.113281 C 331.957031 32.4375 331.140625 36.933594 331.671875 41.296875 C 331.835938 42.628906 333.203125 44.035156 333.347656 45.367188 C 333.894531 50.476563 333.988281 55.523438 333.363281 60.625 C 333.15625 62.34375 331.703125 63.042969 331.445313 64.757813 C 331.019531 67.632813 331.875 70.574219 331.671875 73.472656 C 331.574219 74.859375 330.804688 76.308594 330.074219 77.492188 C 329.542969 78.355469 328.328125 78.667969 327.9375 79.601563 C 326.910156 82.050781 327.171875 85.40625 326.695313 88.0625 C 326.546875 93.132813 326.648438 97.066406 326.867188 102.136719 C 327.023438 105.707031 327.386719 108.914063 326.933594 112.460938 C 326.773438 113.6875 325.742188 114.363281 325.558594 115.589844 C 325.050781 118.976563 325.488281 122.457031 325.160156 125.867188 C 325.105469 126.445313 324.242188 127.117188 324.121094 127.6875 C 323.894531 130.804688 323.675781 135.351563 322.316406 138.859375 C 321.425781 141.171875 319.25 143.507813 317.160156 144.847656 C 315.140625 146.144531 312.964844 146.421875 310.636719 147.015625 C 309.164063 147.390625 307.515625 147.210938 306.167969 147.910156 C 305.359375 148.332031 305.902344 148.335938 305.164063 148.863281 C 304.738281 149.164063 304.003906 149.191406 303.601563 148.863281 C 303.03125 148.398438 303.207031 148.207031 302.546875 147.894531 C 301.535156 147.414063 300.21875 147.453125 299.195313 147.894531 C 298.453125 148.210938 298.722656 148.789063 297.933594 148.941406 C 296.335938 149.257813 294.460938 149.660156 292.734375 149.613281 C 291.699219 149.589844 290.882813 150.054688 290.59375 149.121094 "/>
<path style=" stroke:none;fill-rule:nonzero;fill:rgb(100%,100%,100%);fill-opacity:1;" d="M 305.589844 34.375 C 307.835938 34.257813 308.273438 34.136719 310.273438 35.207031 C 312.339844 36.316406 312.769531 37.046875 314.03125 39.050781 C 314.683594 39.675781 315.335938 40.304688 315.984375 40.933594 C 318.636719 43.492188 319.890625 47.109375 320.972656 50.496094 C 321.152344 54.175781 321.941406 60.617188 320.105469 63.957031 C 319.191406 65.621094 318.828125 66.90625 318.671875 68.320313 C 318.238281 72.277344 317.113281 71.660156 315.972656 74.652344 C 315.664063 75.46875 315.734375 76.476563 315.703125 78.40625 C 315.605469 85.292969 315.503906 92.175781 315.402344 99.0625 C 315.339844 103.464844 314.511719 105.5625 312.734375 109.625 C 311.6875 111.566406 311.140625 112.816406 311.140625 115.023438 C 311.140625 117.632813 310.605469 118.839844 309.570313 121.21875 C 308.9375 122.664063 308.300781 124.117188 307.671875 125.566406 C 306.921875 127.285156 306.234375 127.898438 305.734375 127.667969 C 305.234375 127.441406 304.929688 126.363281 304.9375 124.695313 C 304.980469 116.289063 305.023438 107.886719 305.070313 99.480469 L 305.355469 72.671875 C 305.242188 70.75 305.316406 70.324219 304.054688 68.902344 C 303.9375 66.007813 303.378906 64.699219 302.464844 61.945313 C 301.308594 59.773438 301.441406 58.1875 301.410156 55.707031 C 301.339844 49.496094 301.265625 43.285156 301.195313 37.074219 C 301.152344 33.261719 302.011719 34.5625 305.589844 34.375 "/>
<path style=" stroke:none;fill-rule:nonzero;fill:rgb(1.960754%,39.988708%,68.943787%);fill-opacity:1;" d="M 159.117188 141.234375 C 158.425781 137.851563 158.910156 135.167969 159.089844 132.625 C 159.179688 132.019531 160.398438 132.585938 160.730469 132.074219 C 161.226563 131.308594 161.675781 130.257813 161.347656 129.40625 C 161.152344 128.894531 160.804688 129.597656 160.511719 129.136719 C 160.105469 128.503906 160.246094 127.472656 160.714844 126.882813 C 161.398438 126.015625 162.765625 126.238281 163.230469 125.238281 C 163.867188 123.875 162.773438 122.160156 163.230469 120.726563 C 163.375 120.269531 164.554688 121.191406 164.667969 120.726563 C 165.199219 118.53125 164.535156 116.1875 164.871094 113.957031 C 164.960938 113.375 165.472656 113.101563 165.539063 112.519531 C 165.824219 110.074219 165.972656 107.558594 165.539063 105.132813 C 165.273438 103.628906 164.054688 102.546875 163.847656 101.03125 C 163.085938 95.535156 162.855469 89.554688 163.5625 84.054688 C 164.109375 79.785156 166.832031 73.179688 168.433594 69.179688 C 169.433594 66.679688 169.921875 67.460938 170.820313 64.921875 C 171.097656 64.144531 171.285156 63.238281 171.027344 62.460938 C 170.703125 61.484375 169.554688 60.742188 169.714844 59.726563 C 169.914063 58.488281 171.441406 58.519531 171.847656 57.328125 C 172.402344 55.710938 171.285156 53.816406 171.847656 52.199219 C 172.507813 50.300781 174.777344 49.210938 175.335938 47.277344 C 175.867188 45.433594 175.296875 42.484375 175.820313 40.636719 C 176.847656 36.988281 178.085938 34.628906 179.851563 31.273438 C 180.890625 29.289063 182.699219 27.617188 183.515625 25.527344 C 184.300781 23.515625 184.21875 20.855469 184.570313 19.167969 C 183.285156 17.566406 180.34375 19.800781 178.410156 19.105469 C 177.433594 18.753906 177.4375 17.152344 176.46875 16.769531 C 174.390625 16.628906 172.40625 16.578125 170.929688 17.6875 C 168.945313 19.175781 168.929688 20.917969 168.15625 23.269531 C 166.996094 26.789063 167.878906 30.738281 166.433594 34.144531 C 165.863281 35.492188 163.53125 35.871094 162.410156 36.8125 C 161.816406 37.308594 161.542969 37.828125 160.769531 37.828125 C 159.996094 37.828125 159.320313 37.5625 159.128906 36.8125 C 158.734375 35.289063 159.203125 33.664063 159.128906 32.09375 C 159.066406 30.855469 158.40625 29.597656 158.71875 28.402344 C 158.878906 27.777344 160.308594 28.019531 160.359375 27.375 C 160.972656 20.324219 160.128906 13.320313 160.234375 6.585938 C 160.273438 4.222656 160.902344 4.570313 163.230469 4.546875 C 167.152344 4.507813 173.367188 4.539063 177.871094 4.515625 C 185.78125 4.476563 193.710938 4.179688 201.597656 4.394531 C 202.769531 4.480469 204.296875 4.917969 204.378906 6.089844 C 204.546875 8.464844 202.953125 10.753906 201.855469 12.859375 C 201.273438 13.976563 199.972656 14.703125 199.546875 15.886719 C 198.820313 17.886719 199.609375 20.257813 198.839844 22.246094 C 198.367188 23.464844 195.980469 23.691406 195.523438 24.914063 C 194.871094 26.644531 195.992188 28.734375 195.316406 30.453125 C 194.980469 31.304688 193.160156 30.816406 192.855469 31.683594 C 191.824219 34.609375 192.429688 37.917969 191.625 40.914063 C 191.179688 42.570313 189.925781 43.730469 189.699219 45.429688 C 189.082031 50.039063 190.097656 54.75 189.699219 59.382813 C 189.609375 60.386719 188.546875 61.082031 188.261719 62.046875 C 187.585938 64.324219 187.160156 66.78125 186.378906 69.023438 C 186.042969 69.992188 184.792969 70.496094 184.53125 71.484375 C 184.148438 72.941406 185.113281 74.613281 184.53125 76 C 183.800781 77.742188 181.230469 78.457031 180.839844 80.308594 C 179.730469 85.53125 181.484375 91.035156 180.671875 96.3125 C 180.304688 98.671875 178.226563 100.527344 177.796875 102.878906 C 177.246094 105.90625 178.195313 109.484375 177.441406 112.464844 C 176.710938 115.34375 174.625 117.839844 173.578125 120.621094 C 173.332031 123.34375 170.066406 125.847656 171.847656 127.90625 C 173.996094 128.191406 177.5625 128.628906 180.054688 127.496094 C 181.199219 126.976563 179.871094 124.566406 180.875 123.804688 C 183.9375 121.464844 187.453125 120.621094 190.890625 118.878906 C 192.859375 117.882813 195.328125 116.933594 197.085938 115.597656 C 197.972656 114.917969 198.074219 113.304688 199.132813 112.929688 C 199.773438 112.703125 199.90625 114.253906 200.570313 114.367188 C 202.863281 114.753906 204.851563 113.777344 207.101563 114.367188 C 208 114.601563 207.972656 115.8125 208.207031 116.710938 C 208.414063 117.515625 208.78125 118.386719 208.332031 119.085938 C 208.0625 119.503906 207.085938 119.035156 206.894531 119.496094 C 206.503906 120.445313 206.65625 121.578125 206.894531 122.574219 C 207.082031 123.347656 207.792969 123.832031 207.859375 124.625 C 208.210938 128.78125 208.324219 132.992188 207.859375 137.140625 C 207.761719 138.007813 207.265625 138.921875 206.398438 139.011719 C 200.476563 138.738281 195.007813 139.171875 189.082031 139.191406 C 188.472656 139.136719 188.824219 138.058594 188.261719 137.816406 C 186.734375 137.160156 183.976563 137.074219 182.355469 137.445313 C 180.46875 137.875 180.3125 139.425781 178.410156 139.804688 C 174.992188 140.488281 171.039063 139.820313 167.59375 140.339844 C 166.371094 140.527344 165.441406 141.558594 164.246094 141.855469 C 162.589844 142.269531 159.972656 142.714844 159.117188 141.234375 "/>
<path style=" stroke:none;fill-rule:nonzero;fill:rgb(1.960754%,39.988708%,68.943787%);fill-opacity:1;" d="M 67.730469 150.871094 C 65.171875 151.765625 62.1875 150.871094 59.472656 150.929688 C 58.640625 150.949219 57.277344 151.601563 56.476563 151.367188 C 55.597656 151.113281 54.21875 149.375 54.765625 148.640625 C 56.90625 145.789063 61.125 145.433594 63.078125 142.449219 C 64.230469 140.695313 63.152344 138.335938 63.644531 136.296875 C 63.796875 135.667969 64.894531 135.726563 65.21875 135.171875 C 65.480469 134.71875 65.558594 133.996094 65.21875 133.597656 C 64.4375 132.6875 63.945313 134.597656 63.640625 131.875 C 63.363281 129.4375 63.304688 126.964844 63.53125 124.53125 C 63.671875 122.980469 64.800781 123.308594 65.011719 122.488281 C 65.410156 120.96875 64.585938 119.839844 64.992188 118.320313 C 65.175781 117.636719 66.441406 117.808594 66.789063 117.195313 C 67.125 116.613281 67.164063 115.734375 66.789063 115.171875 C 66.023438 114.023438 63.945313 114.042969 63.714844 112.683594 C 63.285156 110.183594 63.515625 107.496094 63.558594 105.015625 C 63.605469 102.371094 63.425781 99.71875 63.644531 97.023438 C 63.6875 96.523438 64.816406 96.546875 64.992188 96.074219 C 65.335938 95.164063 65.117188 94.121094 64.992188 93.15625 C 64.894531 92.382813 65.132813 90.796875 65.070313 90.015625 C 64.980469 88.820313 64.464844 88.378906 65.023438 87.3125 C 65.410156 86.570313 66.675781 87.019531 66.789063 86.191406 C 67.40625 81.8125 66.09375 77.328125 66.566406 72.933594 C 66.644531 72.1875 67.816406 72.308594 68.015625 71.585938 C 68.332031 70.421875 68.429688 69.082031 67.914063 67.988281 C 67.671875 67.476563 66.523438 67.472656 66.476563 66.90625 C 65.972656 60.484375 66.851563 54.414063 66.34375 47.992188 C 66.292969 47.390625 64.816406 48.234375 64.789063 45.625 C 64.757813 42.890625 64.507813 40.34375 64.542969 38.332031 C 64.574219 36.789063 67.898438 36.746094 67.863281 35.203125 C 67.8125 32.855469 68.183594 30.203125 67.640625 27.789063 C 67.46875 27.015625 66.457031 27.144531 66.117188 26.425781 C 65.796875 25.746094 66.097656 25.070313 66.390625 24.382813 C 66.738281 23.550781 67.691406 23.027344 67.914063 22.152344 C 68.328125 20.558594 68.285156 18.816406 67.914063 17.210938 C 67.792969 16.683594 66.886719 16.171875 66.632813 15.695313 C 66.167969 14.8125 66.378906 14.035156 65.753906 13.253906 C 65.324219 12.71875 64.050781 13.046875 63.527344 12.597656 C 62.179688 11.445313 61.402344 10.167969 60.269531 9.117188 C 59.207031 8.132813 57.773438 7.390625 56.953125 5.9375 C 56.425781 5.007813 57.039063 3.394531 57.890625 2.742188 C 58.542969 2.242188 59.566406 2.355469 60.292969 2.742188 C 60.886719 3.058594 60.871094 4.3125 61.535156 4.402344 C 64.429688 4.808594 67.304688 3.53125 70.160156 4.160156 C 71.40625 4.433594 71.472656 6.007813 72.632813 6.53125 C 73.410156 6.886719 74.808594 6.203125 75.515625 6.683594 C 76.550781 7.382813 77.429688 8.871094 78.25 9.703125 C 79.296875 10.773438 80.207031 11.253906 80.742188 12.765625 C 81.417969 14.679688 81.121094 16.644531 81.09375 18.632813 C 81.066406 20.390625 81.351563 22.167969 81.191406 23.953125 C 81.136719 24.550781 79.984375 24.269531 79.824219 24.851563 C 79.539063 25.871094 79.742188 27.011719 80.273438 27.929688 C 80.65625 28.59375 81.703125 28.253906 81.953125 28.980469 C 82.539063 30.683594 82.613281 32.765625 82.175781 34.511719 C 82.015625 35.160156 80.761719 34.742188 80.722656 35.410156 C 80.21875 43.859375 80.089844 52.382813 80.945313 60.800781 C 81.089844 62.230469 83.355469 62.742188 83.507813 64.171875 C 84.355469 72.140625 83.582031 80.207031 83.253906 88.210938 C 83.207031 89.351563 82.640625 90.78125 82.175781 91.632813 C 81.65625 92.582031 81.980469 93.53125 82 94.578125 C 82.023438 95.925781 81.863281 97.394531 82.070313 98.773438 C 82.1875 99.558594 83.785156 100.308594 83.730469 101.097656 C 83.578125 103.28125 83.890625 104.316406 84.023438 106.46875 C 84.085938 107.507813 82.199219 108.152344 81.601563 109.003906 C 81.167969 109.609375 80.90625 110.792969 81.257813 111.453125 C 81.589844 112.074219 82.183594 111.761719 82.371094 112.4375 C 82.640625 113.402344 82.660156 114.214844 82.175781 115.089844 C 81.863281 115.648438 80.714844 115.574219 80.605469 116.210938 C 80.296875 117.988281 81.308594 119.816406 81.054688 121.601563 C 80.976563 122.136719 79.785156 121.96875 79.707031 122.503906 C 79.304688 125.167969 80.15625 127.933594 79.707031 130.589844 C 79.535156 131.59375 77.980469 132.046875 77.90625 133.0625 C 77.867188 133.628906 79.210938 133.234375 79.480469 133.734375 C 79.90625 134.53125 78.839844 136.179688 79.707031 136.433594 C 82.582031 137.273438 86.136719 137.054688 89.035156 136.296875 C 90.675781 135.863281 91.371094 133.5625 93.058594 133.402344 C 95.09375 133.210938 96.597656 134.554688 98.609375 134.914063 C 101.261719 135.394531 104.164063 135.480469 106.765625 134.78125 C 108.300781 134.367188 109.195313 132.734375 110.769531 132.523438 C 117.597656 131.605469 123.9375 132.171875 130.824219 132.136719 C 137.339844 132.097656 145.675781 131.769531 150.511719 132.300781 C 153.269531 132.390625 150.277344 142.148438 151.273438 147.304688 C 151.488281 148.425781 152.449219 149.054688 153.023438 150.09375 C 153.941406 151.746094 154.300781 152.589844 151.914063 152.582031 C 147.425781 152.558594 142.886719 152.902344 138.015625 152.699219 C 137.058594 152.65625 137.105469 150.8125 136.21875 150.449219 C 135.246094 150.050781 134.09375 150.921875 133.074219 150.675781 C 131.542969 150.304688 129.820313 148.839844 128.257813 148.652344 C 124.09375 148.152344 119.898438 149.199219 115.742188 148.625 C 114.800781 148.492188 114.671875 146.667969 113.722656 146.597656 C 104.011719 145.890625 94.707031 146.910156 84.988281 146.378906 C 82.90625 146.265625 82.71875 145.539063 81.394531 145.15625 C 79.523438 144.617188 76.183594 144.398438 74.417969 145.226563 C 71.136719 146.761719 71.148438 149.667969 67.730469 150.871094 "/>
<path style=" stroke:none;fill-rule:nonzero;fill:rgb(1.960754%,39.988708%,68.943787%);fill-opacity:1;" d="M 184.613281 112.90625 C 182.585938 112.84375 182.449219 109.589844 182.609375 107.589844 C 182.777344 105.546875 185.445313 105.652344 186.398438 103.839844 C 187.09375 102.515625 186.050781 100.191406 186.84375 98.925781 C 187.695313 97.5625 190.007813 97.613281 190.855469 96.25 C 191.34375 95.46875 190.617188 93.976563 190.640625 93.054688 C 190.691406 90.882813 191.179688 89.28125 191.082031 87.105469 C 191.027344 85.972656 190.558594 83.933594 190.773438 82.820313 C 191.066406 81.304688 191.972656 81.671875 192.421875 80.191406 C 192.976563 78.339844 192.050781 76.234375 192.640625 74.390625 C 192.878906 73.664063 194.785156 74.03125 194.648438 73.277344 C 194.484375 72.363281 192.8125 72.855469 192.648438 71.9375 C 192.140625 69.152344 192.113281 65.871094 192.863281 63.140625 C 193.335938 61.433594 195.273438 60.128906 195.765625 58.425781 C 196.277344 56.636719 195.191406 54.613281 195.765625 52.847656 C 196.152344 51.648438 198.136719 51.394531 198.441406 50.171875 C 199.160156 47.285156 198.519531 43.746094 199.269531 40.871094 C 199.664063 39.359375 200.449219 37.648438 201.417969 36.703125 C 201.996094 36.132813 202.519531 35.71875 202.792969 34.824219 C 203.164063 33.597656 202.25 32.566406 202.460938 31.300781 C 202.644531 30.183594 203.5 29.464844 204.042969 28.46875 C 204.726563 27.214844 205.011719 25.621094 205.671875 24.351563 C 206.632813 22.496094 207.925781 20.945313 208.609375 18.96875 C 209.125 17.496094 208.019531 15.09375 208.679688 13.679688 C 209.609375 11.675781 212.019531 11.726563 212.9375 9.714844 C 213.679688 8.09375 212.382813 5.96875 213.160156 4.363281 C 213.726563 3.191406 215.007813 2.675781 216.304688 2.625 C 217.257813 2.585938 218.410156 3.246094 218.734375 4.140625 C 219.375 5.890625 218.796875 7.996094 219.519531 9.714844 C 220.785156 12.738281 222.980469 14.519531 224.199219 17.5625 C 224.835938 19.148438 224.148438 21.433594 224.535156 23.097656 C 225.0625 25.359375 225.433594 27.640625 226.179688 29.847656 C 227.109375 32.589844 228.4375 35.253906 229.21875 38.039063 C 229.910156 40.507813 230.074219 43.1875 230.605469 45.699219 C 230.996094 47.53125 231.710938 49.214844 232.34375 50.976563 C 232.609375 51.730469 233.523438 51.539063 233.742188 52.3125 C 234.125 53.679688 232.976563 55.167969 233.296875 56.550781 C 233.675781 58.203125 235.457031 59.878906 235.75 61.550781 C 236.226563 64.257813 235.730469 66.851563 235.796875 69.597656 C 235.855469 72.113281 236.121094 74.445313 236.449219 76.855469 C 236.65625 78.339844 237.476563 80.453125 237.511719 81.53125 C 237.652344 85.542969 237.828125 89.496094 237.875 93.515625 C 237.941406 99.386719 237.941406 105.664063 237.648438 111.527344 C 237.613281 112.210938 236.796875 112.5625 236.558594 113.203125 C 235.648438 115.632813 234.886719 116.976563 234.300781 119.507813 C 233.992188 120.84375 233.984375 122.277344 233.410156 123.519531 C 233.058594 124.285156 231.488281 124.910156 231.222656 125.710938 C 230.632813 127.484375 231.355469 129.269531 231.226563 131.488281 C 231.113281 133.394531 230.324219 134.492188 229.53125 136.265625 C 228.988281 137.476563 228.101563 139.367188 227.765625 140.632813 C 227.402344 142.003906 228.058594 143.507813 227.65625 144.871094 C 227.445313 145.582031 226.472656 145.925781 226.320313 146.65625 C 225.933594 148.472656 226.652344 150.457031 226.09375 152.226563 C 225.78125 153.230469 225.5625 153.085938 224.605469 153.515625 C 223.925781 153.824219 222.140625 154.167969 222.039063 153.425781 C 221.605469 150.324219 222.480469 148.167969 221.988281 145.070313 C 221.414063 141.445313 219.898438 139.242188 218.984375 135.683594 C 218.539063 133.960938 219.335938 130.839844 218.511719 129.257813 C 217.039063 126.40625 212.3125 125.257813 212.515625 122.054688 C 212.714844 118.957031 214.566406 116.9375 216.453125 114.417969 C 217.742188 112.695313 218.578125 109.875 219.382813 107.910156 C 219.972656 106.460938 220.316406 104.761719 220.34375 103.332031 C 220.382813 101.199219 219.804688 100.269531 218.1875 98.941406 C 214.8125 96.167969 209.355469 93.628906 205.152344 91.585938 C 204.539063 91.289063 203.816406 92.464844 203.816406 93.148438 C 203.816406 93.835938 204.617188 94.367188 204.699219 95.046875 C 204.929688 97.042969 203.722656 99.117188 204.589844 100.933594 C 205.503906 102.851563 209.105469 103.410156 208.574219 105.464844 C 208.214844 106.839844 207.875 107.328125 206.707031 107.996094 C 206 108.40625 205.214844 108.378906 204.386719 108.414063 C 201.902344 108.53125 199.347656 107.648438 196.949219 108.15625 C 194.34375 108.710938 192.007813 109.914063 189.601563 111.113281 C 188.007813 111.910156 186.378906 112.960938 184.613281 112.90625 "/>
<path style=" stroke:none;fill-rule:nonzero;fill:rgb(100%,100%,100%);fill-opacity:1;" d="M 206.582031 81.726563 C 206.558594 79.757813 206.511719 77.820313 206.515625 75.886719 C 206.519531 74.179688 206.5625 72.46875 206.695313 70.742188 C 206.78125 69.617188 207.8125 68.761719 207.941406 67.640625 C 208.164063 65.792969 207.027344 63.574219 207.546875 61.796875 C 207.757813 61.074219 209.585938 61.796875 210 61.191406 C 210.136719 60.992188 210.414063 59.832031 210.875 58.847656 C 211.152344 58.253906 211.730469 57.722656 211.730469 57.496094 C 211.730469 57.164063 211.710938 54.816406 211.957031 52.78125 C 212.101563 51.601563 212.28125 50.605469 212.464844 50.597656 C 212.640625 50.589844 212.820313 51.566406 213.445313 52.382813 C 214.167969 53.320313 214.410156 54.246094 215.042969 55.238281 C 215.414063 55.824219 215.8125 56.511719 216.429688 56.753906 C 217.210938 57.054688 218.144531 56.628906 218.925781 56.941406 C 219.507813 57.175781 219.648438 58.089844 220.171875 58.453125 C 220.523438 58.699219 221.339844 58.230469 221.421875 58.679688 C 221.789063 60.703125 221.46875 63.414063 221.789063 65.449219 C 221.867188 65.9375 222.945313 65.710938 222.972656 66.203125 C 223.136719 69.746094 223.21875 73.296875 223.203125 76.84375 C 223.195313 79.976563 223.113281 83.109375 222.949219 86.234375 C 222.90625 87.128906 220.550781 87.191406 219.894531 86.691406 C 218.621094 85.71875 217.816406 84.59375 216.152344 84.195313 C 215.457031 84.03125 215.492188 82.929688 214.835938 82.710938 C 213.371094 82.222656 211.53125 82.101563 210.007813 82.101563 C 209.011719 82.101563 207.570313 82.453125 206.582031 82.328125 C 206.398438 82.308594 206.585938 81.925781 206.582031 81.726563 "/>
<path style=" stroke:none;fill-rule:nonzero;fill:rgb(100%,100%,100%);fill-opacity:1;" d="M 253.945313 20.664063 C 253.949219 22.703125 254.167969 24.910156 254.175781 27.046875 C 254.183594 29.792969 253.984375 32.253906 253.992188 35.019531 C 254.003906 37.96875 254.222656 41.226563 254.222656 44.109375 C 254.222656 46.453125 253.796875 50.957031 253.976563 52.902344 C 254.210938 55.40625 254.347656 55.839844 257.769531 55.839844 C 259.425781 55.839844 261.671875 54.144531 263.324219 52.425781 C 264.457031 51.25 264.285156 49.222656 264.71875 48.34375 C 265.359375 47.054688 266.453125 45.875 266.679688 44.378906 C 266.972656 42.453125 266.269531 40.863281 267.554688 39.632813 C 268.058594 39.144531 268.535156 33.613281 268.535156 32.398438 C 268.535156 30.664063 266.714844 28.089844 264.621094 25.789063 C 263.1875 24.214844 261.472656 22.800781 260.738281 21.722656 C 259.398438 19.75 258.394531 18.882813 256.804688 18.527344 C 253.898438 17.878906 253.941406 18.144531 253.945313 20.664063 "/>
<g clip-path="url(#clip3)" clip-rule="nonzero">
<path style=" stroke:none;fill-rule:nonzero;fill:rgb(1.960754%,39.988708%,68.943787%);fill-opacity:1;" d="M 334.882813 0.300781 C 335.707031 0.300781 336.492188 0.453125 337.226563 0.75 C 337.960938 1.046875 338.613281 1.488281 339.1875 2.058594 C 339.742188 2.621094 340.171875 3.269531 340.472656 4.007813 C 340.773438 4.746094 340.925781 5.519531 340.925781 6.335938 C 340.925781 7.15625 340.777344 7.929688 340.484375 8.648438 C 340.183594 9.367188 339.753906 10.003906 339.1875 10.554688 C 338.59375 11.132813 337.925781 11.574219 337.183594 11.890625 C 336.441406 12.203125 335.671875 12.359375 334.882813 12.359375 C 334.085938 12.359375 333.324219 12.203125 332.601563 11.902344 C 331.882813 11.597656 331.230469 11.15625 330.648438 10.570313 C 330.070313 9.996094 329.628906 9.347656 329.324219 8.621094 C 329.019531 7.894531 328.867188 7.128906 328.867188 6.335938 C 328.867188 5.527344 329.019531 4.753906 329.328125 4.015625 C 329.636719 3.277344 330.078125 2.613281 330.664063 2.027344 C 331.214844 1.464844 331.851563 1.035156 332.570313 0.742188 C 333.292969 0.449219 334.0625 0.300781 334.882813 0.300781 M 339.691406 6.328125 C 339.691406 5.6875 339.570313 5.078125 339.328125 4.492188 C 339.089844 3.910156 338.746094 3.394531 338.296875 2.945313 C 337.828125 2.480469 337.308594 2.128906 336.734375 1.894531 C 336.160156 1.65625 335.550781 1.535156 334.898438 1.535156 C 334.238281 1.535156 333.621094 1.652344 333.050781 1.882813 C 332.480469 2.117188 331.972656 2.460938 331.527344 2.914063 C 331.070313 3.378906 330.714844 3.90625 330.472656 4.492188 C 330.226563 5.082031 330.101563 5.695313 330.101563 6.328125 C 330.101563 6.964844 330.222656 7.574219 330.464844 8.152344 C 330.710938 8.734375 331.058594 9.25 331.511719 9.703125 C 331.972656 10.164063 332.488281 10.515625 333.070313 10.761719 C 333.644531 11.003906 334.253906 11.121094 334.898438 11.121094 C 335.53125 11.121094 336.144531 11 336.726563 10.753906 C 337.316406 10.511719 337.84375 10.15625 338.3125 9.6875 C 338.765625 9.246094 339.109375 8.738281 339.34375 8.167969 C 339.574219 7.601563 339.691406 6.988281 339.691406 6.328125 M 334.960938 2.933594 C 335.890625 2.933594 336.597656 3.097656 337.085938 3.421875 C 337.574219 3.746094 337.820313 4.226563 337.820313 4.851563 C 337.820313 5.269531 337.703125 5.628906 337.472656 5.933594 C 337.242188 6.238281 336.921875 6.460938 336.503906 6.609375 L 337.933594 9.453125 L 335.691406 9.453125 L 334.535156 6.953125 L 334.339844 6.953125 L 334.339844 9.453125 L 332.285156 9.453125 L 332.285156 2.933594 Z M 334.648438 4.210938 L 334.339844 4.210938 L 334.339844 5.757813 L 334.769531 5.757813 C 335.074219 5.757813 335.3125 5.691406 335.46875 5.558594 C 335.628906 5.421875 335.707031 5.226563 335.707031 4.972656 C 335.707031 4.707031 335.621094 4.515625 335.453125 4.394531 C 335.28125 4.269531 335.015625 4.210938 334.648438 4.210938 "/>
</g>
</g>
</svg>
